<svg xmlns="http://www.w3.org/2000/svg" viewBox="0 0 59.68 61.08"><g id="Calque_2" data-name="Calque 2"><g id="Calque_1-2" data-name="Calque 1"><g id="Calque_5" data-name="Calque 5"><path d="M9,7.93l.07,0h0L9,7.93H9m3.31-1.11,0,0s0,0,0,0M11.25,8a4.25,4.25,0,0,1-.88.5,7.64,7.64,0,0,0-1.1.57H.88V0H12.69l-.45.17a1.44,1.44,0,0,0-.53.35,1.55,1.55,0,0,0-.32.54,1.41,1.41,0,0,0-.48.55c-.15.29-.38.55-.34.87s.1.53.15.82a2.46,2.46,0,0,0,.07.29c0,.1,0,.23.05.31s0,.12.09.15v.07s0,0,.05,0v.07a2.46,2.46,0,0,1,.39.51c0,.1-.17,0-.26,0a2,2,0,0,1-.41-.35s0,0,0,0,.32.27.19.36-.16,0-.23,0a.41.41,0,0,0,0,.11c-.1-.07-.2,0-.3-.07s-.09-.16-.18-.16-.43-.09-.65-.12a3.38,3.38,0,0,0-.9,0A1,1,0,0,0,8,5V5c.12,0,.17-.09.27-.12s.33-.1.5-.14a3,3,0,0,1,.73-.1h.17a2.64,2.64,0,0,0-.87.17,3.38,3.38,0,0,0-.6.17,4,4,0,0,1,1.32.19,1.9,1.9,0,0,1,.43.21,1.09,1.09,0,0,0,.17.13.33.33,0,0,0,.29,0h.09a1.38,1.38,0,0,0,.7-.33s0,0,0,0a1.34,1.34,0,0,1-.15.41s0,0,0,.07h0s0,0,0,0,0,0,.07,0a.37.37,0,0,0-.22.1s0,0,.05,0-.08,0-.1,0l0,0s0,0,0,0V6s-.07,0-.1,0,.12,0,.18,0a4.93,4.93,0,0,1-.53.22s0,.05,0,.05.09,0,.14,0c-.24.13-.48.25-.74.41a.07.07,0,0,0,0,.06H9.68s0,.07,0,.11.19-.07.24,0H9.8s0,0,0,0h0s-.07,0-.07.1a.08.08,0,0,0-.08,0,3.13,3.13,0,0,0,1.13-.2,2.72,2.72,0,0,0,.75-.56l0,0a.76.76,0,0,1-.29.39c-.11.05-.17.14-.26.17l-.15.11c-.64.22-1.39.12-1.94.54h0s-.09,0-.1.08h0a0,0,0,0,0,0,0l0,0A1.66,1.66,0,0,1,9,7.54s0,0,0,0l-.2.1h0a.57.57,0,0,0-.11.11s0,0,0,0h0l0,0v0l0,0v0h0V8h0c.06,0,.1-.07.14-.11l.08,0h0v0l0,0s0,0,0,0h0a1.3,1.3,0,0,0-.29.22h0s0,0,0,0h0l-.07.1a.56.56,0,0,1,0,.08l-.05.07v0h.06l.27-.27h0a1.56,1.56,0,0,1,.28-.23.29.29,0,0,0,.12-.1l0,0h0l.31-.13h0a4.76,4.76,0,0,1,.62-.11,1.54,1.54,0,0,0,.43,0,1.66,1.66,0,0,0,.31-.12v0c.26-.11.44-.33.7-.41,0,0,.05,0,.09,0a.66.66,0,0,1,.54-.25s0,0,0,0h0L12.09,7s0,0,0,0,.13-.1.22-.13,0,0,0,.06l-.19.15a5.19,5.19,0,0,0-.57.58h0L11.25,8M8.62,6.76c.12,0,.26,0,.36-.11s-.09,0-.12-.07a.17.17,0,0,0-.12,0c-.07,0-.19,0-.21.12s.05,0,.09,0M6,6.38A5.7,5.7,0,0,1,7.32,5.2s-.05,0,0,0,.29-.27.39-.44.38-.31.55-.5a.14.14,0,0,1,0,.06h.05c.07-.05.15,0,.21-.1a.7.7,0,0,0-.45,0,3.51,3.51,0,0,0-1,.75,2.07,2.07,0,0,1-.58.48A5.33,5.33,0,0,1,6,6.35a0,0,0,0,0,0,0M7.42,5.25s0,0,0,0a.18.18,0,0,0-.13.15s0,0,0,0a.12.12,0,0,0,.07-.07.42.42,0,0,0,0-.07m.8,2.56s-.08,0-.1,0l0,0L8,7.9,7.89,8S8,8.06,8,8L8,8h0a.38.38,0,0,0,.13-.09s0,0,0,0l.05-.05m-.31-.14a4.64,4.64,0,0,1,.44-.26.32.32,0,0,0-.16,0c-.08,0-.19,0-.27,0s-.49.09-.66.25h0l0,0h0s0,0,0,0l-.09.08h0l0,0s0,0,0,0l.07-.06h0a.31.31,0,0,0-.07.09h0v0h0V8h0S7,8,7,8H7l0,0,0,0H7l-.05.07h0l0,0,0,0h0l-.06.06h0v0h0v0h0A.52.52,0,0,1,7,8.22l.06-.05h0l0,0h0s0,0,0,0l0,0a.08.08,0,0,1,0,0h0l0,0h0s0,0,0,0a.75.75,0,0,1,.17-.14h0l.23-.11a1.33,1.33,0,0,0,.19-.14h0m.35-1.19a.2.2,0,0,0,.22,0,.25.25,0,0,1,.17,0s0,0,0,0a.32.32,0,0,0,.14,0A4.23,4.23,0,0,0,10,6.05a4.48,4.48,0,0,0-1.54-.61c.05,0,.1,0,.15,0s-.19,0-.27-.09.05,0,.07,0A2.08,2.08,0,0,0,8,5.23a.16.16,0,0,0,.13-.17h0a.94.94,0,0,0-.43.51c.12.07.26,0,.38,0,0,.06-.14.06-.2.07s-.11,0-.09.09l0,0a.24.24,0,0,0-.11.06c.07,0,.14,0,.21,0s0,0,0,.05a.28.28,0,0,0-.17.15c0,.09-.12.13-.17.19v0a2.68,2.68,0,0,0-.5.45s0,0,0,0S7,6.84,7,6.89s0,0,0,0c.21-.07.36-.22.55-.29s.24-.12.36-.16a2.13,2.13,0,0,0,.27-.07s0,0,0,0h.14s-.09,0-.07,0"/><path d="M25.84,0H16.11l.09,0,.25.13a.79.79,0,0,1,.32.28s.09.15.05.22-.05.22-.13.26a.74.74,0,0,1-.36,0l-.21,0a1.31,1.31,0,0,1,.67.46.22.22,0,0,0,.16.05s0,0,0,.05-.07.05-.05.1H17c.09,0,.07-.2.19-.15a.18.18,0,0,1,.07.25L17,1.87A.24.24,0,0,0,17,2a.4.4,0,0,1,.09.2c0,.12.07.26.12.38a2.53,2.53,0,0,1,.12.77c0,.13-.07.25,0,.39a1.55,1.55,0,0,0,.19.36l.19.27c.1.17.29.34.2.55s-.24.1-.36.17,0,.22,0,.31-.1.25-.22.31c0,0,.1,0,.12.06s.1.14.05.23-.28.15-.17.3a.5.5,0,0,1,0,.38.43.43,0,0,1-.31.26.69.69,0,0,1-.32,0,.45.45,0,0,0-.11,0,6.5,6.5,0,0,0-.87-.12,1.09,1.09,0,0,0-.24.07,1.68,1.68,0,0,0-.21.18h0l0,0,0,0v0a1.43,1.43,0,0,0-.14.2h0l0,0a3.05,3.05,0,0,0-.13.32,1.07,1.07,0,0,0,0,.81s.56.19.94.35a2.52,2.52,0,0,1,.4.21h9.56Z"/><path d="M16.69,3.3c.07,0,.17,0,.17.05s-.24.17-.34.31h-.05s0,.12-.09.12a.19.19,0,0,0-.15,0,.3.3,0,0,0,.25.1.11.11,0,0,1,.06.07l0,0s0,0,0,0V4c-.05.06-.13,0-.2,0a.86.86,0,0,0,.39,0c.1,0,0-.21.07-.29s0-.06,0-.06.06-.08.1-.1a.12.12,0,0,0,.1-.05s-.07,0-.05-.08.19-.18.15-.28-.15,0-.24-.08a.57.57,0,0,0-.29,0l-.25.07A1.29,1.29,0,0,0,16,3.4a2.36,2.36,0,0,1,.38-.1h.29"/><path d="M23,58.73c.19,0,.35.14.26.5l-.85.19c.15-.39.39-.69.59-.69m.48,1.38h-.17a1,1,0,0,1-.67.45c-.24,0-.36-.13-.36-.45a2.58,2.58,0,0,1,0-.38l1.38-.45c.27-.64-.05-.92-.43-.92-.66,0-1.4,1.09-1.4,2,0,.43.21.66.53.66s.76-.36,1.08-1m-.28-2,1-.91v-.1h-.53l-.6,1Zm-3,.64h.46l-.73,2a.24.24,0,0,0,.1.32l.1,0a1.68,1.68,0,0,0,1.32-1h-.13a1.87,1.87,0,0,1-.84.51l.66-1.87h.69l.08-.29h-.66l.25-.72h-.26l-.47.72-.57.08Zm-.62-.1a.2.2,0,0,0-.09-.27l-.07,0a1.28,1.28,0,0,0-1.06.87h.13A1,1,0,0,1,19,58.8l-.76,2a.21.21,0,0,0,.08.27l.09,0a1.26,1.26,0,0,0,1-.86h-.13a1.09,1.09,0,0,1-.56.43Zm.14-1a.33.33,0,0,0,.33-.33.33.33,0,1,0-.65,0,.33.33,0,0,0,.32.33h0m-4.39,3.05c-.1.22,0,.36.23.36a.22.22,0,0,0,.25-.18l.53-1.4a1.9,1.9,0,0,1,.94-.61c.15,0,.13.12,0,.29l-.81,1.56a.24.24,0,0,0,.09.32l.11,0a1.28,1.28,0,0,0,1.06-.86h-.13a1.07,1.07,0,0,1-.55.43l.7-1.41a1.19,1.19,0,0,0,.13-.49.35.35,0,0,0-.3-.38h-.07c-.34,0-.69.39-1.1.87v-.37c0-.26-.09-.5-.33-.5s-.29.13-.43.32v0c.26,0,.38.37.19.78Zm0-1.74c.1-.32,0-.61-.2-.61s-.37.23-.67.87v-.37c0-.26-.08-.5-.32-.5s-.53.44-.73.87h.13c.13-.2.26-.31.36-.31s.18.18,0,.59l-.54,1.2c-.1.22,0,.36.23.36a.21.21,0,0,0,.24-.18l.53-1.4c.15-.18.29-.34.46-.52Zm-3.06-.24c.19,0,.35.14.26.5l-.85.19c.15-.39.4-.69.59-.69m.48,1.38h-.17a1,1,0,0,1-.68.45c-.23,0-.35-.13-.35-.45a2.58,2.58,0,0,1,0-.38L13,59.28c.27-.64,0-.92-.43-.92-.65,0-1.4,1.09-1.4,2,0,.43.21.66.53.66s.76-.36,1.08-1M9.47,58.75h.46l-.73,2a.24.24,0,0,0,.1.32l.1,0a1.68,1.68,0,0,0,1.32-1h-.13a1.87,1.87,0,0,1-.84.51l.66-1.87h.69l.08-.29h-.66l.25-.72h-.26l-.47.72-.57.08ZM7,60.3c0-.62.68-1.45,1.06-1.45a1,1,0,0,1,.24,0l-.4,1.06c-.23.28-.58.62-.75.62S7,60.48,7,60.3m2.09-2-.2,0-.24.23h0a2.41,2.41,0,0,0-2.12,2.21.38.38,0,0,0,.35.4h.06c.3,0,.59-.41.91-.86l0,.16c0,.46.1.7.34.7s.54-.43.73-.86H8.68c-.13.2-.26.31-.36.31s-.18-.19,0-.59ZM6.63,59c.1-.32,0-.61-.2-.61s-.37.23-.67.87v-.37c0-.26-.08-.5-.32-.5s-.54.44-.73.87h.13c.13-.2.26-.31.36-.31s.18.18,0,.59l-.54,1.2c-.1.22,0,.36.22.36a.22.22,0,0,0,.25-.18l.53-1.4c.15-.18.28-.34.45-.52ZM2.82,61l.05-.15c-.67-.12-.75-.12-.49-.85l.27-.74h.73c.33,0,.34.13.29.49h.19l.44-1.2H4.11c-.17.29-.3.5-.66.5H2.73L3.11,58c.12-.33.19-.4.64-.4h.32c.46,0,.52.13.52.59h.18l.16-.81H2.18l-.05.15c.53.11.58.16.33.85L1.86,60c-.25.69-.35.74-1,.85L.85,61Z"/><path d="M16.3,52.5c.19,0,.35.14.26.5l-.86.2c.15-.4.4-.7.6-.7m.47,1.38H16.6a1,1,0,0,1-.67.46c-.23,0-.35-.14-.35-.46a1.69,1.69,0,0,1,0-.38L17,53.05c.27-.64-.06-.92-.43-.92-.66,0-1.4,1.1-1.4,2,0,.43.2.67.52.67s.77-.37,1.08-1m-.27-2,1-.91v-.1H17l-.6,1Zm-3,.64H14l-.73,2a.23.23,0,0,0,.1.32.38.38,0,0,0,.1,0,1.73,1.73,0,0,0,1.32-1h-.13a1.87,1.87,0,0,1-.84.51l.66-1.87h.68l.09-.29h-.66l.25-.72h-.26l-.48.72-.56.08Zm-.62-.1a.2.2,0,0,0-.1-.27l-.06,0a1.28,1.28,0,0,0-1.06.87h.13a1,1,0,0,1,.55-.43l-.76,2a.2.2,0,0,0,.08.27l.08,0a1.26,1.26,0,0,0,1-.87h-.13a1.07,1.07,0,0,1-.55.43Zm.14-1a.33.33,0,0,0,.33-.33.33.33,0,1,0-.66,0,.34.34,0,0,0,.33.33h0m-2.65,3,1.39-3.65,0,0-.88.1v.1L11,51c.16.12.11.24,0,.6L9.91,54.5a.24.24,0,0,0,.09.32l.11,0a1.22,1.22,0,0,0,1-.87H11a1.09,1.09,0,0,1-.6.43m-2.64-.34c0-.62.68-1.45,1.07-1.45l.23,0-.4,1.06c-.23.28-.58.62-.75.62s-.15-.08-.15-.26m2.1-2-.21,0-.24.23H9.35a2.4,2.4,0,0,0-2.11,2.21.38.38,0,0,0,.34.41h.06c.3,0,.59-.42.91-.87v.16c0,.46.1.71.34.71s.53-.44.72-.87H9.47c-.13.2-.26.31-.36.31s-.17-.19,0-.59ZM4.77,55.33c0-.27.26-.43.62-.58l.54.21c.38.12.52.17.52.29s-.41.43-1,.43-.71-.1-.71-.35m1-1.61c-.17,0-.23-.14-.23-.3,0-.44.24-1.1.61-1.1.16,0,.23.14.23.3,0,.44-.24,1.1-.61,1.1m1.08,1.36c0-.32-.29-.43-.75-.57s-.58-.15-.58-.28a.39.39,0,0,1,.26-.32,1.17,1.17,0,0,0,1.07-1.12.62.62,0,0,0,0-.27h.55l.09-.29H6.6a.75.75,0,0,0-.36-.1A1.16,1.16,0,0,0,5.1,53.24a.65.65,0,0,0,.53.66c-.32.14-.5.31-.5.51a.29.29,0,0,0,.13.27c-.74.22-1,.47-1,.82s.45.49,1,.49c.92,0,1.68-.49,1.68-.91M3.4,53c.33,0,.34.13.29.49h.19l.44-1.2H4.13c-.17.29-.3.5-.66.5H2.75l.36-1c.12-.33.19-.39.64-.39h.32c.46,0,.52.12.52.58h.18l.16-.81H2.18l-.05.15c.53.11.58.16.33.85l-.6,1.63c-.25.69-.35.74-1,.85l-.05.15H3.91l.55-.86H4.25a2,2,0,0,1-1.4.64c-.81,0-.74,0-.47-.78L2.67,53Zm.4-2.09,1-.66v-.11H4.19l-.54.77Z"/><path d="M16,46.27c.18,0,.34.14.26.5l-.86.2c.15-.4.4-.7.6-.7m.47,1.38h-.17a1,1,0,0,1-.67.46c-.24,0-.36-.14-.36-.46a2.58,2.58,0,0,1,0-.38l1.39-.45c.26-.64-.06-.92-.44-.92-.65,0-1.39,1.1-1.39,2.05,0,.43.2.67.52.67s.76-.37,1.08-1m-.27-2,1-.91v-.1h-.52l-.6,1Zm-2.86.64h.36l-.72,2a.23.23,0,0,0,.09.31l.11,0a1.71,1.71,0,0,0,1.31-1h-.13a1.87,1.87,0,0,1-.84.51l.67-1.87h.68l.09-.29h-.67l.26-.71h-.27l-.47.71-.47.08Zm-.36.22c.1-.32,0-.61-.2-.61s-.37.23-.67.87V46.4c0-.26-.08-.5-.32-.5s-.54.44-.73.87h.13c.13-.2.26-.31.36-.31s.18.18,0,.59L11,48.25c-.1.22,0,.37.22.37a.22.22,0,0,0,.25-.18L12,47c.15-.19.28-.35.45-.53ZM9.9,46.27c.19,0,.35.14.26.5L9.3,47c.15-.4.4-.7.6-.7m.48,1.38h-.17a1,1,0,0,1-.68.46c-.23,0-.35-.14-.35-.46a1.69,1.69,0,0,1,0-.38l1.38-.45c.27-.64,0-.92-.43-.92-.66,0-1.4,1.1-1.4,2.05,0,.43.21.67.52.67s.77-.37,1.09-1M7,48.21c-.13,0-.33-.12-.33-.23a3,3,0,0,1,.14-.39L7,47c.24-.28.6-.59.81-.59s.22.08.22.27c0,.54-.51,1.53-1.06,1.53m1.57-1.75c0-.41-.15-.56-.43-.56s-.68.37-1,.82L8,44.53l0-.05-.87.1v.1l.17.13c.16.12.11.25,0,.61l-.9,2.31a2.07,2.07,0,0,0-.14.42c0,.24.32.47.61.47a2.57,2.57,0,0,0,1.81-2.16m-2.71-.27a.2.2,0,0,0-.1-.27l-.06,0a1.29,1.29,0,0,0-1.07.87h.13a1,1,0,0,1,.56-.43l-.77,2a.19.19,0,0,0,.09.26l.08,0a1.26,1.26,0,0,0,1-.87H5.59a1.07,1.07,0,0,1-.55.43Zm.14-1a.33.33,0,0,0,.33-.33h0a.33.33,0,0,0-.66,0h0A.33.33,0,0,0,6,45.2H6m-2-.32H2.17l0,.15c.53.11.58.16.33.85l-.59,1.63c-.25.69-.35.74-1,.85l-.05.15H3.61l.6-1.06H4a1.93,1.93,0,0,1-1.35.84c-.46,0-.52-.08-.27-.78L3,45.88c.24-.68.35-.74,1-.85Z"/><path d="M2.57,13.58h1.8l2.56,6.78H5.47L4.82,18.6H2.11l-.65,1.76H0ZM4.4,17.42l-.93-2.54-.93,2.54Z"/><path d="M8,13.58H9.69l1.66,2.85L13,13.58h1.71v6.78H13.35V15.5L11.83,18h-1L9.36,15.5v4.86H8Z"/><path d="M16.61,13.58h2c1.42,0,2.28.7,2.28,1.84a1.56,1.56,0,0,1-.73,1.34,1.72,1.72,0,0,1,1.12,1.6c0,1.24-1,2-2.52,2H16.61ZM18,14.72v1.53h.65a.74.74,0,0,0,.84-.77c0-.48-.31-.76-.84-.76Zm0,2.67v1.82h.85c.64,0,1-.33,1-.91s-.38-.91-1-.91Z"/><path d="M24.4,13.58h1.8l2.56,6.78H27.3l-.65-1.76H23.94l-.65,1.76H21.83Zm1.83,3.84-.93-2.54-.93,2.54Z"/><path d="M30.2,18.5a2,2,0,0,0,1.5.83c.54,0,.87-.29.87-.77,0-1.25-3.08-.91-3.08-3.21a2,2,0,0,1,2.19-2,3,3,0,0,1,2.37,1.15l-1,.91a1.77,1.77,0,0,0-1.35-.85.72.72,0,0,0-.8.66.43.43,0,0,0,0,.05c0,1.23,3.08.88,3.08,3.21a2.07,2.07,0,0,1-2.25,2,3,3,0,0,1-2.51-1.13Z"/><path d="M35.79,18.5a2,2,0,0,0,1.51.83c.54,0,.87-.29.87-.77,0-1.25-3.08-.91-3.08-3.21a2,2,0,0,1,2.19-2,3,3,0,0,1,2.37,1.15l-1,.91a1.78,1.78,0,0,0-1.35-.85.72.72,0,0,0-.8.66.07.07,0,0,0,0,.05c0,1.23,3.08.88,3.08,3.21a2.07,2.07,0,0,1-2.25,2,3,3,0,0,1-2.51-1.13Z"/><path d="M42.72,13.58h1.8l2.57,6.78H45.62L45,18.6H42.26l-.65,1.76H40.15Zm1.83,3.84-.93-2.54-.93,2.54Z"/><path d="M48.13,13.58H50.8a3.4,3.4,0,1,1,0,6.78H48.13Zm1.38,1.25v4.28h1.31a2.14,2.14,0,0,0,0-4.28H49.51Z"/><path d="M55.73,13.58h4v1.14H57.1v1.61h2.19v1.14H57.1v1.74h2.58v1.15h-4Z"/><path d="M.85,23.42H3.52a3.39,3.39,0,1,1,0,6.77H.85Zm1.38,1.24V29h1.3a2.15,2.15,0,0,0,.06-4.29H2.23Z"/><path d="M8.45,23.42h4v1.14H9.82v1.61H12v1.14H9.82v1.74H12.4v1.14h-4Z"/><path d="M16.51,23.42h3.95v1.14H17.89v1.61h2.19v1.14H17.89v2.88H16.51Z"/><path d="M21.67,23.42h2.08c1.49,0,2.41.76,2.41,2a1.82,1.82,0,0,1-1.1,1.75l2.12,3H25.57l-1.81-2.74h-.71v2.74H21.67Zm1.38,1.14v1.75h.77a.88.88,0,1,0,0-1.75Z"/><path d="M29.77,23.42h1.8l2.57,6.77H32.68L32,28.43H29.32l-.65,1.76H27.2Zm1.83,3.84-.93-2.55-.93,2.55Z"/><path d="M35.18,23.42H37l3,4.9v-4.9h1.37v6.77H39.59l-3-4.9v4.9H35.18Z"/><path d="M48.05,28.17l1.08.83a3.46,3.46,0,0,1-2.86,1.39,3.59,3.59,0,1,1,2.86-5.79l-1.08.84a2.12,2.12,0,0,0-1.78-.93,2.3,2.3,0,0,0,0,4.59A2.12,2.12,0,0,0,48.05,28.17Z"/><path d="M50.32,23.42h4v1.14H51.7v1.61h2.19v1.14H51.7v1.74h2.57v1.14h-4Z"/><path d="M2.57,33.25h1.8L6.93,40H5.47l-.65-1.76H2.11L1.46,40H0ZM4.4,37.1l-.93-2.55L2.54,37.1Z"/><path d="M11.9,33.25h1.38v4.13a2.58,2.58,0,0,1-2.75,2.84,2.57,2.57,0,0,1-2.74-2.84V33.25H9.16v4.24a1.3,1.3,0,0,0,1.38,1.45,1.3,1.3,0,0,0,1.36-1.45Z"/><path d="M17.5,33.25h2c1.41,0,2.27.7,2.27,1.84A1.56,1.56,0,0,1,21,36.43,1.72,1.72,0,0,1,22.16,38c0,1.24-1,2-2.52,2H17.5Zm1.38,1.14v1.53h.64a.77.77,0,1,0,0-1.53Zm0,2.68v1.82h.84c.64,0,1-.34,1-.91s-.38-.91-1-.91Z"/><path d="M23.57,33.25h3.95v1.14H25V36h2.19v1.15H25v1.74h2.57V40H23.57Zm1.34-.58L26,31.36h1.42l-1.26,1.31Z"/><path d="M29.12,33.25h1.76l3,4.9v-4.9h1.37V40H33.53l-3-4.9V40H29.12Z"/><path d="M37.19,33.25h1.37V40H37.19Z"/><path d="M40.46,33.25h1.76l3,4.9v-4.9h1.37V40H44.87l-3-4.9V40H40.46Z"/></g></g></g></svg>