<svg xmlns="http://www.w3.org/2000/svg" viewBox="0 0 272.18 71.48"><defs><style>.cls-1{font-size:10.27px;font-family:Gotham-Bold, Gotham;font-weight:700;}.cls-2{letter-spacing:-0.02em;}.cls-3{letter-spacing:-0.01em;}.cls-4{letter-spacing:0em;}.cls-5{letter-spacing:0em;}.cls-6{letter-spacing:-0.03em;}.cls-7{letter-spacing:-0.03em;}.cls-8{letter-spacing:-0.01em;}.cls-9{letter-spacing:-0.01em;}.cls-10{letter-spacing:0em;}.cls-11{letter-spacing:-0.01em;}.cls-12{letter-spacing:-0.01em;}.cls-13,.cls-14{fill:none;}.cls-13{stroke:#000;stroke-miterlimit:10;stroke-width:3.83px;}</style></defs><g id="Calque_2" data-name="Calque 2"><g id="Calque_1-2" data-name="Calque 1"><text class="cls-1" transform="translate(2.54 56.11)">GROUPE DES É<tspan class="cls-2" x="80.27" y="0">C</tspan><tspan x="87.65" y="0">OLES CENTRALE</tspan></text><text class="cls-1" transform="translate(2.54 68.44)">Des <tspan class="cls-3" x="22.57" y="0">f</tspan><tspan x="26.41" y="0">orm</tspan><tspan class="cls-4" x="47.28" y="0">a</tspan><tspan class="cls-5" x="53.31" y="0">tions d&apos;</tspan><tspan class="cls-6" x="92.02" y="0">e</tspan><tspan class="cls-7" x="98.01" y="0">x</tspan><tspan class="cls-8" x="103.66" y="0">c</tspan><tspan x="109.38" y="0">ellen</tspan><tspan class="cls-9" x="134.58" y="0">c</tspan><tspan class="cls-10" x="140.3" y="0">e de ni</tspan><tspan class="cls-6" x="175.5" y="0">v</tspan><tspan x="181.35" y="0">eau in</tspan><tspan class="cls-11" x="212.72" y="0">t</tspan><tspan class="cls-10" x="216.84" y="0">ern</tspan><tspan class="cls-12" x="233.83" y="0">a</tspan><tspan x="239.86" y="0">tional</tspan></text><path d="M12,14c.6,1.27-.38,3-1.74,3.65a2.63,2.63,0,0,1-3.55-1.12A2.65,2.65,0,0,1,8.08,13C9.44,12.39,11.4,12.72,12,14Z"/><path d="M22.86,23.27a2.63,2.63,0,0,1-1.36,3.47c-1.36.65-3.32.33-3.92-.94s.37-3,1.73-3.65A2.63,2.63,0,0,1,22.86,23.27Z"/><path d="M28.77,20.46A9.29,9.29,0,0,0,13.18,18.6l3.23,2.62a5.13,5.13,0,1,1,4,8.37v4.15a9.27,9.27,0,0,0,8.33-13.28Z"/><path d="M13.19,18.6a5.14,5.14,0,1,1-4-8.37V6.07a9.29,9.29,0,0,0,0,18.58h0a9.33,9.33,0,0,0,7.2-3.44Z"/><path d="M163.88,31.55l13.72-5.63-.1-.15c-8.29,2.11-19.15-1-19.6-5.32A13.87,13.87,0,0,1,169.61,6.53l0-.15H158.14s-.61.31-.74.72h0V17.9l-8.91,3.41c-.4.15-.4.31-.05.56l4,2.61h0l.55.35h0l1.41.91c1.71,1.1,4.87,2.91,5.42,3.16l0,.1a11.37,11.37,0,0,0-2.11-.51h.27v4.92a.6.6,0,0,0,.6.6h11.16l0-.15a14.9,14.9,0,0,1-5.73-2.31Z"/><path d="M194.71,18.25l-9-4.92-.05.1a17.28,17.28,0,0,0-.71,2.21l-.1-.05A62.52,62.52,0,0,0,185,9V7c.14-.46-.07-.61-.47-.62H173.41l.05.16a13.84,13.84,0,0,1,11.71,13.67h0s0,1.71-3.42,3.67l.1.15,3.06-1.26a13.75,13.75,0,0,1-11.5,11.1l0,.14h11.15c.45,0,.61-.19,1-.59h0V22.72l9.13-3.92c.4-.15.4-.3.05-.55Z"/><path d="M177.13,25.84c-8.29,2.11-19.14-1-19.6-5.33a17.09,17.09,0,0,1,.2-2.76l-.2.1-9,3.41c-.4.15-.4.31-.05.56l4,2.61h0l.55.35h0l1.41.9c1.71,1.11,4.87,2.92,5.42,3.17l0,.1,3.17,2.46s.35.35.55.25L177.18,26l-.05-.2Z"/><path d="M183.31,23.47l.6-.25Z"/><polygon points="186.17 22.32 186.37 22.22 186.37 22.22 186.17 22.32"/><polygon points="185.12 22.72 185.12 22.72 186.17 22.32 185.12 22.72"/><polygon points="183.91 23.22 184.91 22.82 184.91 22.82 183.91 23.22"/><path d="M186.17,22.32l.2-.05h0l8.29-3.42c.4-.15.4-.3.05-.55l-9-4.87-.05.1a17.28,17.28,0,0,0-.71,2.21l-.1-.05c0,1.15.31,1.76.31,4.62h0s0,1.71-3.42,3.67l.1.15,1.46-.61h0l.6-.25,1-.4h0l.26-.1h0l1-.45Z"/><path class="cls-13" d="M130.23,7.1c-6.87.3-12.73,6.26-12.73,12.79,0,7,5.54,12.53,12.86,12.79"/><polygon class="cls-14" points="128.99 15.45 131.48 15.45 133.49 16.69 134.73 18.78 134.73 21.24 133.55 23.35 131.47 24.52 128.99 24.52 126.83 23.35 125.79 21.26 125.79 18.82 126.9 16.76 128.99 15.45"/><polygon points="131.43 15.44 129.06 15.44 127 16.63 125.81 18.69 125.81 21.07 127 23.13 129.06 24.32 131.43 24.32 133.5 23.13 134.68 21.07 134.68 18.69 133.5 16.63 131.43 15.44"/><polygon points="99.96 6.17 99.96 9.36 87.73 9.36 87.73 30.41 99.96 30.41 99.96 33.44 84.72 33.44 84.72 6.17 99.96 6.17"/><polygon points="94.06 27.43 94.06 15.53 96.92 15.53 96.92 27.43 99.96 27.43 99.96 12.49 90.63 12.49 90.63 27.43 94.06 27.43"/><path d="M228.57,0,228,3.71c-22.08,2.83-23.5,26.68-3.18,23.68C235,25.93,248.3,19.5,259.63,12.28a4,4,0,0,0,3.11-1.06c.73-.13.93-.53,1.66-.2.73-.26.86-.4,1.19-.4s.86-.59,1.26-.59a3.93,3.93,0,0,0,1.92-.67C267.71,11,250.66,23.5,234.58,28.8c-37.2,11.84-36.49-24.21-6-28.8"/><path d="M216.05,31v6.51h19.61V28.84c-.35.12-.7.25-1.06.36-7.84,2.5-14,2.86-18.55,1.84m0-13.1v8.24a16.93,16.93,0,0,0,8.84.71A55.33,55.33,0,0,0,235.66,24V17.94Z"/><path d="M66,8.13A.27.27,0,0,0,66,8.05h0l-.38-.18-.88-.37a24.4,24.4,0,0,0-9-1.76h-.14A24.2,24.2,0,0,0,51.84,6a24.52,24.52,0,0,0-6.6,2,.2.2,0,0,0-.12.12s0,0,0,.05V24.77a5.69,5.69,0,0,0,3,5.05l7.29,3.83a.42.42,0,0,0,.15,0,.33.33,0,0,0,.14,0L63,29.82a5.71,5.71,0,0,0,3-5.05V8.26a.2.2,0,0,0,0-.13ZM48.28,29.56a5.39,5.39,0,0,1-2.89-4.79V18.56h10V33.3a0,0,0,0,0,0,0ZM54.81,17a1.4,1.4,0,0,0-.27-.38,2.54,2.54,0,0,0-.6-.29,2.26,2.26,0,0,0-.06-.7.89.89,0,0,0-.24-.32c-.1-.09-.2-.21-.5-.47s-.44-.42-.44-.42a.67.67,0,0,0-.24.13,4.77,4.77,0,0,1-.74.58,9.08,9.08,0,0,1-1.47.45c-.33.06-.66-.07-.81,0s-.16.29-.16.29a1.17,1.17,0,0,0,.06.37.28.28,0,0,0,.22.21c.26.09.23.14.36.19s.14.35.14.35H48.93s-.14-.16-.19-.26a1.48,1.48,0,0,0-.35-.55s.15-.3.21-.46a6.37,6.37,0,0,0,.28-1s.7-.07.95-.12a1.1,1.1,0,0,0,.46-.17,8.43,8.43,0,0,0,.6-.72,8.5,8.5,0,0,0,.66-1.27l.06-.22a3.72,3.72,0,0,0-1.26.39,12.14,12.14,0,0,1-1.22.65,1.93,1.93,0,0,1-1.32,0c-.14-.06-.53,0-.72-.38a.87.87,0,0,1-.09-.6,4.2,4.2,0,0,1,.65.3,1.15,1.15,0,0,1,.27.38,1,1,0,0,0,.34.09,1.4,1.4,0,0,0,.79-.12,26,26,0,0,1,2.32-1.46,4.32,4.32,0,0,1,.64-.19l.24-.09a4.15,4.15,0,0,1,1.5-.26c.57,0,.87.17,2,.19a6.18,6.18,0,0,0,1.32-.1l.14-.07v-.06l-.08-.08a2,2,0,0,1,.19-.17l.22-.16a1.53,1.53,0,0,0,.25-.23.09.09,0,0,0,0-.07l-.1,0h-.1s0,0,0,0l.19-.1.29-.16.39-.17c.09,0,.08-.06.08-.06a.27.27,0,0,1-.1-.1,1.32,1.32,0,0,1,.31-.14,1.69,1.69,0,0,0,.26-.11.24.24,0,0,0,.11-.11c-.06,0-.08-.09-.08-.09l.12,0,.41-.13a2.76,2.76,0,0,1,.37,0,2,2,0,0,0,.31-.09l.19-.05.32,0,.41-.06.34,0h.18a.35.35,0,0,0,.19.1,2.36,2.36,0,0,1,.37.18c.13.08.27.19.27.19a.31.31,0,0,1,.14,0,.48.48,0,0,0,.05.12,1.17,1.17,0,0,1,.1.2A1.89,1.89,0,0,1,63,9.6l.18.17a.59.59,0,0,0,.17.11.18.18,0,0,1,.07.1.63.63,0,0,0,.07.22s.1.14.14.16l.15.17c.06.06.18.13.23.19a.39.39,0,0,1,.07.09.31.31,0,0,1,.15.18.17.17,0,0,0,0,.12.47.47,0,0,1-.11.14l0,.08a.82.82,0,0,1,0,.11c0,.08-.1.08-.13.11s0,.08,0,.15a.22.22,0,0,1-.08.15s0,.06-.09.1l-.11.07-.06,0a.58.58,0,0,1-.11-.1c0-.06-.08,0-.15-.05a1.91,1.91,0,0,0-.21,0,.61.61,0,0,0-.19.06s-.07.1-.11.16a1.32,1.32,0,0,0-.08.19.29.29,0,0,1-.08.11c0-.06-.06-.15-.06-.15s0,.06-.1.17a2.18,2.18,0,0,1-.2.37c-.09.08-.07.09-.14.17l-.11.13a.4.4,0,0,1,0-.14.8.8,0,0,1-.16.15,1,1,0,0,0-.25.2c-.05.09,0-.08-.1.09a1.93,1.93,0,0,1-.24.29l-.09.09v.18l.1.24s.45.6.67.86.66.88.75,1a2.36,2.36,0,0,0,.47.2c.51.19.32.28.54.39s.09.4.09.4-.49,0-.77,0-.17-.05-.34-.21a.62.62,0,0,0-.31-.16s-.43-.12-.5-.23a1.9,1.9,0,0,0-.59-.34,3.19,3.19,0,0,0-.48-.63,10,10,0,0,0-1-.52l-.13-.08-.12.07a3.3,3.3,0,0,1-1,.2l-.24.33c-.11.13-.66.68-.66.68s0,.23.12.28.16.05.46.19c.08,0,.14.12.21.16s.07.31.07.31H57.23a1,1,0,0,0-.08-.17,1.42,1.42,0,0,0-.28-.31c0-.07-.23-.53-.23-.53a1.94,1.94,0,0,0,.39-.82,1,1,0,0,0,0-.33c-.28-.1-.55-.21-.66-.26a2.9,2.9,0,0,0-1.62-.05c0,.13,0,.34,0,.56a2.47,2.47,0,0,0,.15.89,1.64,1.64,0,0,0,.37.32c.14.11.13,0,.6.21a.6.6,0,0,1,.23.21.22.22,0,0,1,.09.27H54.81Zm11,7.78a5.39,5.39,0,0,1-2.89,4.79l-7.17,3.76a0,0,0,0,0,0,0V18.56H65.79v6.21Z"/><path d="M49.59,23.7a4.27,4.27,0,0,0-1.22-.46.2.2,0,0,0,0-.24v0a.24.24,0,0,0,.35,0,.25.25,0,0,0,0-.29.28.28,0,0,1,.37,0,.07.07,0,0,0,.12,0,.09.09,0,0,0,0-.12.46.46,0,0,0-.6,0l-.08-.07a.47.47,0,0,0,0-.61.09.09,0,0,0-.12,0s0,.09,0,.12a.29.29,0,0,1,0,.38.24.24,0,0,0-.29,0,.25.25,0,0,0,0,.36v0a.23.23,0,0,0-.25,0,4.23,4.23,0,0,0-.45-1.22,1,1,0,0,0-.62-.48.44.44,0,0,0-.34.11.48.48,0,0,0-.16.36.68.68,0,0,0,.11.36.53.53,0,0,0-.09.34.75.75,0,0,0,.36.47,3,3,0,0,0,.78.37.22.22,0,0,0,0,.22,1.37,1.37,0,0,0-.39,0l.76.76a.85.85,0,0,0,0-.38.28.28,0,0,0,.22,0,3.11,3.11,0,0,0,.37.77.73.73,0,0,0,.47.36H49a.49.49,0,0,0,.28-.09.71.71,0,0,0,.35.11h0a.48.48,0,0,0,.36-.17.39.39,0,0,0,.11-.34.9.9,0,0,0-.48-.61Zm-2.82-1.17a.58.58,0,0,1-.29-.35.29.29,0,0,1,0-.16l.16.17c.22.2.55.47.79.68a2.69,2.69,0,0,1-.68-.34Zm.92.31c-.25-.2-.65-.54-.91-.78a.85.85,0,0,1-.32-.55.3.3,0,0,1,.11-.24.22.22,0,0,1,.17-.07h0a.83.83,0,0,1,.5.41,4.19,4.19,0,0,1,.44,1.22Zm1.24,1.78a.6.6,0,0,1-.36-.28,3,3,0,0,1-.33-.69c.2.25.48.57.68.79a1.25,1.25,0,0,0,.17.16A.3.3,0,0,1,48.93,24.62Zm.9-.08a.3.3,0,0,1-.23.11h0a.83.83,0,0,1-.55-.33c-.25-.26-.58-.66-.79-.91l0,0a4.15,4.15,0,0,1,1.22.45.76.76,0,0,1,.4.49.24.24,0,0,1-.07.21Z"/><path d="M46.17,24l.89.89a1,1,0,0,0,.25-.16l-1-1A2.56,2.56,0,0,0,46.17,24Z"/><path d="M46.53,23.58l1,1a1.5,1.5,0,0,0,.17-.23l-.93-.94a1.88,1.88,0,0,0-.24.18Z"/><path d="M46.21,24.9a.6.6,0,0,0,.55.14l-.69-.69A.61.61,0,0,0,46.21,24.9Z"/><path d="M53.64,27.74a4.32,4.32,0,0,0-1.23-.46.18.18,0,0,0,0-.24h0a.25.25,0,0,0,.36,0,.26.26,0,0,0,0-.3.29.29,0,0,1,.37,0,.09.09,0,0,0,.12,0,.07.07,0,0,0,0-.12.45.45,0,0,0-.6,0l-.07-.07a.45.45,0,0,0,0-.6.07.07,0,0,0-.12,0,.09.09,0,0,0,0,.12.29.29,0,0,1,0,.37.26.26,0,0,0-.3,0,.25.25,0,0,0,0,.36h0a.18.18,0,0,0-.24,0,4.32,4.32,0,0,0-.46-1.23,1,1,0,0,0-.61-.48.46.46,0,0,0-.35.12.48.48,0,0,0-.16.36.71.71,0,0,0,.11.35.48.48,0,0,0-.08.34.68.68,0,0,0,.36.47,2.79,2.79,0,0,0,.77.37.28.28,0,0,0,0,.22,1.05,1.05,0,0,0-.38,0l.75.75a1.05,1.05,0,0,0,0-.38.28.28,0,0,0,.22,0,3,3,0,0,0,.37.78.75.75,0,0,0,.47.36H53a.48.48,0,0,0,.27-.09.71.71,0,0,0,.35.11h0A.54.54,0,0,0,54,28.7a.48.48,0,0,0,.11-.34,1,1,0,0,0-.48-.62Zm-2.83-1.17a.58.58,0,0,1-.29-.35.23.23,0,0,1,0-.16,1.25,1.25,0,0,0,.16.17l.78.68a2.86,2.86,0,0,1-.68-.34Zm.92.31c-.24-.2-.65-.53-.91-.78a.85.85,0,0,1-.32-.55.34.34,0,0,1,.11-.24.28.28,0,0,1,.17-.07h0a.85.85,0,0,1,.49.41,4.11,4.11,0,0,1,.44,1.22h0ZM53,28.67a.58.58,0,0,1-.35-.29,2.86,2.86,0,0,1-.34-.68l.68.78a1.2,1.2,0,0,0,.17.16A.29.29,0,0,1,53,28.67Zm.91-.09a.34.34,0,0,1-.24.11h0a.85.85,0,0,1-.55-.32c-.24-.26-.58-.67-.78-.91v0a4.41,4.41,0,0,1,1.22.44.83.83,0,0,1,.41.5.31.31,0,0,1-.07.2Z"/><path d="M50.21,28.09l.89.89.26-.16-1-1A2.13,2.13,0,0,0,50.21,28.09Z"/><path d="M50.58,27.62l1,1a1.18,1.18,0,0,0,.17-.24l-.93-.93a1.18,1.18,0,0,0-.24.17Z"/><path d="M50.25,28.94a.61.61,0,0,0,.55.14l-.69-.69A.6.6,0,0,0,50.25,28.94Z"/><path d="M59.15,28.65a1.24,1.24,0,0,0,.27,0,1.32,1.32,0,0,0,.28-2.61,1.31,1.31,0,0,0-1.57,1,1.31,1.31,0,0,0,.19,1A1.29,1.29,0,0,0,59.15,28.65Zm-.85-1.53a1.09,1.09,0,0,1,.5-.72,1.08,1.08,0,0,1,.62-.19,1,1,0,0,1,.24,0,1.15,1.15,0,1,1-.48,2.24,1.12,1.12,0,0,1-.72-.5A1.09,1.09,0,0,1,58.3,27.12Z"/><path d="M57.16,28.17l-.23.1.16.35.22-.1a2.53,2.53,0,0,0,.55.67l-.14.2.31.22.14-.19a2.44,2.44,0,0,0,.75.29H59L59,30l.38,0,0-.24h.05a2.46,2.46,0,0,0,.81-.14l.1.22.35-.16-.1-.22a2.35,2.35,0,0,0,.67-.55l.2.14.23-.31-.2-.14a2.36,2.36,0,0,0,.3-.75.13.13,0,0,1,0-.06l.24,0,0-.38-.24,0a2.25,2.25,0,0,0-.14-.86l.22-.1-.16-.35-.22.1a2.25,2.25,0,0,0-.51-.64l.27.2.15-.2a1.34,1.34,0,0,0,.4.13v.24h.38v-.24a1.7,1.7,0,0,0,.4-.13l.15.2.31-.23-.15-.2.14-.15.11-.19.24.08.11-.37-.23-.07a1.48,1.48,0,0,0,0-.42l.23-.08-.11-.37-.24.08a1.36,1.36,0,0,0-.25-.34l.15-.2-.31-.22-.15.2a1.17,1.17,0,0,0-.4-.13V22.9h-.38v.25a1.11,1.11,0,0,0-.4.13l0,0,.31-.23-.13-.18a1.83,1.83,0,0,0,.44-.6l.21.07.12-.37-.22-.07a1.64,1.64,0,0,0,0-.73l.22-.07-.12-.37-.21.07a1.82,1.82,0,0,0-.29-.45l-.15-.15.14-.18-.32-.23-.13.19a1.65,1.65,0,0,0-.7-.23V19.5H60.2v.23a1.81,1.81,0,0,0-.7.23l-.13-.19-.31.23.13.18a1.76,1.76,0,0,0-.43.6l-.22-.07-.12.37.22.07a1.8,1.8,0,0,0,0,.73l-.22.07.12.37.21-.07a2.16,2.16,0,0,0,.29.45l.15.15-.13.18.31.22.13-.18a1.81,1.81,0,0,0,.7.23v.23h.39V23.3a1.81,1.81,0,0,0,.7-.23h0L61,23.3l.15.2a1.07,1.07,0,0,0-.14.16,1.74,1.74,0,0,0-.11.18l-.24-.08-.12.37.24.08a1.48,1.48,0,0,0,0,.42l-.24.07.12.37.24-.08a1,1,0,0,0,.25.34h0l-.32-.23-.14.2a2.56,2.56,0,0,0-.74-.3h-.07l0-.24-.38,0,0,.24h-.06a2.36,2.36,0,0,0-.8.14l-.1-.22-.35.16.09.22a2.35,2.35,0,0,0-.67.55l-.2-.14-.22.31.19.14a2.49,2.49,0,0,0-.29.75.13.13,0,0,0,0,.06l-.25,0,0,.38.25,0a2.32,2.32,0,0,0,.14.86ZM60.4,23a1.51,1.51,0,0,1-1.14-.52,1.46,1.46,0,0,1-.37-1.09,1.51,1.51,0,0,1,2.64-.9,1.51,1.51,0,0,1-.14,2.13A1.53,1.53,0,0,1,60.4,23Zm.83.8a1,1,0,0,1,.8-.4,1,1,0,0,1,.59.19A1,1,0,0,1,62.83,25a1,1,0,0,1-.8.41,1,1,0,0,1-.59-.19A1,1,0,0,1,61.23,23.82Zm-3.88,3.1a2.1,2.1,0,0,1,2.51-1.63,2.12,2.12,0,0,1-.44,4.19,2.28,2.28,0,0,1-.44-.05,2.12,2.12,0,0,1-1.63-2.51Z"/><path d="M54.37,23a4.32,4.32,0,0,0-1.23-.46.18.18,0,0,0,0-.24h0a.27.27,0,0,0,.36,0,.26.26,0,0,0,0-.3.28.28,0,0,1,.37,0A.09.09,0,0,0,54,22s0-.09,0-.12a.45.45,0,0,0-.6,0l-.08-.07a.44.44,0,0,0,0-.6.08.08,0,0,0-.12,0,.09.09,0,0,0,0,.12.29.29,0,0,1,0,.37.26.26,0,0,0-.3,0,.25.25,0,0,0,0,.36h0a.2.2,0,0,0-.24,0,4.38,4.38,0,0,0-.46-1.22,1,1,0,0,0-.62-.48.48.48,0,0,0-.34.11.52.52,0,0,0-.16.36.72.72,0,0,0,.11.36.48.48,0,0,0-.08.34.7.7,0,0,0,.35.47,3,3,0,0,0,.78.37.28.28,0,0,0,0,.22,1.05,1.05,0,0,0-.38,0l.75.75a1.05,1.05,0,0,0,0-.38.28.28,0,0,0,.22,0,3,3,0,0,0,.37.78.7.7,0,0,0,.47.35h.07A.48.48,0,0,0,54,24a.71.71,0,0,0,.35.11h0a.48.48,0,0,0,.36-.17.42.42,0,0,0,.12-.34,1,1,0,0,0-.48-.61ZM51.54,21.8a.58.58,0,0,1-.29-.35.23.23,0,0,1,0-.16,1.25,1.25,0,0,0,.16.17l.78.68a2.86,2.86,0,0,1-.68-.34Zm.92.31c-.24-.2-.65-.54-.91-.78a.85.85,0,0,1-.32-.55.34.34,0,0,1,.11-.24.28.28,0,0,1,.17-.07h0a.85.85,0,0,1,.49.41,4.41,4.41,0,0,1,.44,1.22ZM53.7,23.9a.58.58,0,0,1-.35-.29,2.86,2.86,0,0,1-.34-.68l.68.78.17.16A.29.29,0,0,1,53.7,23.9Zm.91-.09a.34.34,0,0,1-.24.11h0a.85.85,0,0,1-.55-.32c-.25-.26-.58-.67-.78-.92h0a4.11,4.11,0,0,1,1.22.44.83.83,0,0,1,.41.5.31.31,0,0,1-.07.2Z"/><path d="M50.94,23.32l.89.88a1.28,1.28,0,0,0,.25-.15l-1-1Z"/><path d="M52.47,23.61l-.93-.93a1.18,1.18,0,0,0-.24.17l1,1a1.5,1.5,0,0,0,.17-.23Z"/><path d="M51.53,24.31l-.69-.69a.61.61,0,0,0,.14.55A.6.6,0,0,0,51.53,24.31Z"/></g></g></svg>