<svg xmlns="http://www.w3.org/2000/svg" viewBox="0 0 41.02 43.14"><g id="Calque_2" data-name="Calque 2"><g id="Calque_1-2" data-name="Calque 1"><polygon points="33.64 5.72 41.02 13.11 26.25 13.11 33.64 5.72"/><polygon points="33.64 25.31 41.02 17.93 26.25 17.93 33.64 25.31"/><polygon points="7.38 5.72 14.76 13.11 0 13.11 7.38 5.72"/><polygon points="7.38 25.31 14.76 17.93 0 17.93 7.38 25.31"/><polygon points="20.53 23.39 27.91 30.78 13.15 30.78 20.53 23.39"/><polygon points="20.53 7.38 27.91 0 13.15 0 20.53 7.38"/><polygon points="25.2 15.49 20.53 20.17 20.53 10.81 25.2 15.49"/><polygon points="15.84 15.49 20.53 20.17 20.53 10.81 15.84 15.49"/><path d="M.21,42.33l.66-.78a2.28,2.28,0,0,0,1.49.61c.58,0,.71-.18.71-.47h0c0-.28-.16-.43-1-.64S.43,40.52.43,39.53h0A1.55,1.55,0,0,1,2.16,38,2.86,2.86,0,0,1,4,38.66l-.56.82A2.48,2.48,0,0,0,2.15,39c-.43,0-.64.2-.64.45h0c0,.33.21.44,1.08.67s1.58.62,1.58,1.49h0c0,1-.76,1.53-1.84,1.53A3.25,3.25,0,0,1,.21,42.33Z"/><path d="M5.27,38.07H9v1H6.36v1H8.71v1H6.36v1H9.07v1H5.27Zm1.5-.4-1-.71.93-.4.87,1.11Z"/><path d="M10.18,38.07h1.19l1.31,2.11L14,38.07h1.18v5H14.08V39.8l-1.4,2.13h0l-1.39-2.11v3.24H10.18Z"/><path d="M16.51,38.07h3.76v1H17.61v1H20v1H17.61v1H20.3v1H16.51Zm1.51-.4-1-.71.93-.4.87,1.11Z"/><path d="M23.49,40.58h0A2.56,2.56,0,0,1,26,38h.08a2.62,2.62,0,0,1,2,.78l-.7.8A1.87,1.87,0,0,0,26.09,39a1.48,1.48,0,0,0-1.45,1.55h0a1.49,1.49,0,0,0,1.45,1.57,1.82,1.82,0,0,0,1.31-.59l.7.71a2.55,2.55,0,0,1-2.06.88,2.5,2.5,0,0,1-2.55-2.46A.14.14,0,0,1,23.49,40.58Z"/><path d="M29.16,38.07h1.1v5h-1.1Z"/><path d="M32.82,39.07H31.29v-1h4.14v1H33.91v4H32.82Z"/><path d="M37.82,41.08l-1.91-3h1.27l1.19,2,1.22-2h1.25l-1.92,3v2h-1.1Z"/></g></g></svg>