<svg xmlns="http://www.w3.org/2000/svg" viewBox="0 0 121.31 29.09"><g id="Calque_2" data-name="Calque 2"><g id="Calque_1-2" data-name="Calque 1"><path d="M104.43,0a11.49,11.49,0,1,0,11.49,11.49A11.49,11.49,0,0,0,104.43,0m8.89,5.1c-.55.37-1.2.74-1.85,1.11a10.39,10.39,0,0,0-1.39-2.13c.46-.28.93-.65,1.3-.93a5.49,5.49,0,0,1,1.94,1.95M108.5,1.3a10.42,10.42,0,0,1,2.6,1.48,6.81,6.81,0,0,1-1.3.93A15.4,15.4,0,0,0,108,2a3.74,3.74,0,0,1,.55-.65m.93,2.59a18.19,18.19,0,0,1-2,.84,11.1,11.1,0,0,0-.92-1.86,3.7,3.7,0,0,0,1-.65,10.71,10.71,0,0,1,1.85,1.67M108,1.11a2.52,2.52,0,0,0-.46.56,13.31,13.31,0,0,0-2-1,6.88,6.88,0,0,1,2.41.46m-.83.84a3.88,3.88,0,0,1-.84.46c-.37-.56-.74-1-1.11-1.58A10.25,10.25,0,0,1,107.21,2m-2.6-1a7.56,7.56,0,0,1,1.21,1.66,4.39,4.39,0,0,1-1.21.19Zm0,2.31A4.25,4.25,0,0,0,106.09,3,10.67,10.67,0,0,1,107,4.82a19,19,0,0,1-2.41.37ZM104.15.93V2.78a6,6,0,0,1-1.21-.19A17.41,17.41,0,0,0,104.15.93m-1.58,1.48a2.58,2.58,0,0,1-.83-.46,18.23,18.23,0,0,1,2-1,5.46,5.46,0,0,0-1.12,1.48m.65-1.85a16.46,16.46,0,0,0-1.94,1,2.85,2.85,0,0,1-.47-.56,17.45,17.45,0,0,1,2.41-.46M111.1,20.2a2.41,2.41,0,0,1-1.48-2.41c.09-.46.37-.28.55-.28a4.25,4.25,0,0,0,3.34-1.67,5,5,0,0,0-.37-6.94c-2.41-2.32-5-1.95-6.67.18a2.63,2.63,0,0,1-1.86.74c-1.11,0-.37.84-.37,1a.29.29,0,0,1-.28.28c-.37-.09-.18.46-.18.56s-.19.27-.19.27c-.46,0-.37.37-.28.56a.37.37,0,0,1-.18.37c-.19.09-.28.46-.28.74,0,.46.46.83,1.21,1.39a1.76,1.76,0,0,1,.83,1.48,6.64,6.64,0,0,0,.19,1.39c.18.47.18,1.39-.84,1.39a14.75,14.75,0,0,0-3.7,1.12,4.34,4.34,0,0,1-2.41.18A10.21,10.21,0,0,1,97,19.64a1.59,1.59,0,0,1,.37-1.39,1.67,1.67,0,0,0,1.39.37,16.08,16.08,0,0,0,2.32-.37c.28-.09.37-.09.46,0a1.33,1.33,0,0,0,2-.92c.37-1.3-.46-.93-.65-.84s-.28,0-.18-.09c.18-.28-.1-.28-.19-.28a1.72,1.72,0,0,0-.93.47.69.69,0,0,1-.37.09c-.46-.28-1.85.09-2.31-.65a36.5,36.5,0,0,0-.56-3.8.47.47,0,0,1,.09-.46c.37-.56,1.3,0,1.86,0a1,1,0,0,0,.92-.47c.19-.18.28-.09.37-.18s0-.19,0-.28.1,0,.19-.09,0-.28,0-.37c.19-.28.56-.09.37-.65a1,1,0,0,1,.28-.93c.28-.37,1.48-2-.56-3.8s-4-1.48-5.28-.09-.65,3.43-.56,4a1.11,1.11,0,0,1-.74,1.2,12.9,12.9,0,0,0-1.76,1.2,10.8,10.8,0,0,1,6.86-9.91c.19.19.37.46.56.65l-1.49,1.2a.66.66,0,0,1,.28.1,1,1,0,0,1,.28.09,12.26,12.26,0,0,1,1.3-1,3.78,3.78,0,0,0,1,.65c-.19.37-.75,1.29-.75,1.29a.35.35,0,0,0,.19.1.29.29,0,0,0,.19.09s.55-1,.74-1.39a3.59,3.59,0,0,0,1.39.28V5.28a5.48,5.48,0,0,1-1.21-.09h-.18l.09.18c.09.1.09.19.18.28h1.12V9.08h.46V8.25a13,13,0,0,0,2-.19h0l.64-.55h-.37a17.47,17.47,0,0,1-1.94.18h-.28V5.56a8.28,8.28,0,0,0,2.59-.37l.65,1.94.47-.18L107.58,5a12.8,12.8,0,0,0,2-.83A10.82,10.82,0,0,1,111,6.3a7.6,7.6,0,0,1-.93.37c.46.09.83.19.83.19a.94.94,0,0,1,.28-.1.89.89,0,0,0,.09.28l.65.28-.09-.19a3.16,3.16,0,0,0-.28-.55,10.75,10.75,0,0,0,2-1.11,10.68,10.68,0,0,1,1.76,6,10.49,10.49,0,0,1-4.17,8.71"/><path d="M91.92,3.06l-.19.18c-.65.56-2.22,2.13-1.94,3.89v.1l.09.37.18-.19a7,7,0,0,0,2-4L92.1,3Z"/><path d="M88.77,6l-.1.19a10.2,10.2,0,0,0-.37,1.67,5.35,5.35,0,0,0,.84,4l.09.19.09.18.19-.74A14,14,0,0,0,89,6.3l-.18-.37Z"/><path d="M87.66,10.66v.18c-.1,1.11,0,4,2.31,5.56l.28.19v-.37A13.7,13.7,0,0,0,88,10.75l-.28-.37Z"/><path d="M88,15.75v.19A7.34,7.34,0,0,0,92.29,21l.37.1-.09-.37a15.22,15.22,0,0,0-4.27-5L88,15.57Z"/><path d="M92.94,5.56l-.28.09c-1.76,1.11-2.6,2.41-2.6,4.08v.37l.28-.19a10.53,10.53,0,0,0,2.5-4l.1-.46Z"/><path d="M91.83,9.08l-.1.19a5.72,5.72,0,0,0-1.85,4,3.4,3.4,0,0,0,.18.93l.1.27.18-.27a10.31,10.31,0,0,0,1.58-4.82V9Z"/><path d="M91.92,12.51l-.09.18A6,6,0,0,0,90.71,16a4.26,4.26,0,0,0,.74,2.22l.19.28.09-.28a14.36,14.36,0,0,0,.56-4.17,4,4,0,0,0-.19-1.29L92,12.42Z"/><path d="M92.75,16.12l-.09.19a5.59,5.59,0,0,0-.28,2.13,4.07,4.07,0,0,0,2,3.52l.18.09.1-.28V21.5A13,13,0,0,0,93,16.22l-.19-.28Z"/><path d="M90.25,20.94l.09.19c.93,1.57,2.6,3.7,5.65,3.15h.28l-.18-.19a14.92,14.92,0,0,0-5.56-3.15l-.37-.09Z"/><path d="M94.79,25h0l-.46.09.46.19a9.36,9.36,0,0,0,5.84.55,2.79,2.79,0,0,0,1.2-.83c2.5.28,4.82,2.31,6.21,4l.09.09h.1a1.81,1.81,0,0,0,.46-.37l.09-.09-.09-.09A12.92,12.92,0,0,0,105,25.48,15.32,15.32,0,0,0,94.79,25"/><path d="M94.88,19.83V20c.28,1.86,1,4.27,4.17,4h.19l-.09-.19c-.19-.83-3.06-3.24-4.08-3.89l-.28-.18Z"/><path d="M116.75,2.87l.09.47a7,7,0,0,0,2,4l.18.19.1-.38V7c.27-1.76-1.3-3.33-1.95-3.89L116.94,3Z"/><path d="M120,5.84l-.18.37a16.11,16.11,0,0,0-.56,5.19l.19.74.09-.09.09-.19a4.91,4.91,0,0,0,.84-4,8.27,8.27,0,0,0-.37-1.67L120,6Z"/><path d="M121.2,10.47l-.28.37a14.21,14.21,0,0,0-2.22,5.47v.37l.27-.19c2.32-1.48,2.41-4.35,2.32-5.56v-.18Z"/><path d="M120.83,15.57l-.37.18a15.22,15.22,0,0,0-4.27,5l-.09.37.37-.1a7,7,0,0,0,4.26-5.09v-.19Z"/><path d="M115.92,5.37l.09.47a10.31,10.31,0,0,0,2.5,4.07l.28.19V9.73c.09-1.67-.74-3-2.5-4.08l-.19-.09Z"/><path d="M116.94,9v.37a10.9,10.9,0,0,0,1.57,4.82l.19.27.09-.27a4.18,4.18,0,0,0,.18-.93,5.68,5.68,0,0,0-1.85-4l-.09-.1Z"/><path d="M116.84,12.32l-.09.37a4.48,4.48,0,0,0-.18,1.3,11.88,11.88,0,0,0,.55,4.17l.09.28.19-.28a3.79,3.79,0,0,0,.74-2.22A6.23,6.23,0,0,0,117,12.6l-.09-.18Z"/><path d="M116,15.94l-.19.28a13,13,0,0,0-1.66,5.28v.27l.09.28.18-.09a4.28,4.28,0,0,0,2-3.52,8.73,8.73,0,0,0-.28-2.13l-.09-.19Z"/><path d="M118.7,20.76l-.37.09c-1.3.18-5,2.31-5.56,3.15l-.19.18h.28c3.06.56,4.72-1.57,5.65-3.15l.09-.18Z"/><path d="M104,25.48a11.52,11.52,0,0,0-3.7,3.06l-.1.09.1.09c.09.1.37.28.46.37h.09l.1-.09c1.39-1.67,3.7-3.8,6.2-4a3.5,3.5,0,0,0,1.21.83,9.4,9.4,0,0,0,5.84-.55l.46-.19-.46-.09c-4.73-1.21-8.25-.47-10.2.46"/><path d="M114,19.64l-.28.19c-1,.65-3.8,3.06-4.07,3.89l-.1.19h.19c3.06.27,3.8-2.14,4.17-4v-.18Z"/><path d="M35.77,1.11h3.89V4.63H35.77Zm.37,7.6h3.24V25.94H36.14Z"/><path d="M11.58,8.71h3.25V25.94H11.68v-2.5h-.1A6.62,6.62,0,0,1,5.65,26.5C2,26.5,0,23.72,0,20.29V8.71H3.24V18.9c0,3,.65,5.19,3.8,5.19a4,4,0,0,0,3.8-2.5,11.7,11.7,0,0,0,.65-4.08V8.71Z"/><path d="M21.31,11.21h0a6.23,6.23,0,0,1,5.28-3.06c1.21,0,6.49.28,6.49,5.84V25.85H29.84V15c0-2.87-1.21-4.35-4-4.35A4.47,4.47,0,0,0,22.7,12c-.46.47-1.39,1.21-1.39,4.64v9.35H18.07V8.71h3.24Z"/><path d="M53,14.18c-.18-2.13-1.2-3.62-3.52-3.62-3.06,0-4.26,2.69-4.26,6.67s1.2,6.68,4.26,6.68c2.13,0,3.43-1.39,3.61-3.9h3.25c-.28,3.9-3.15,6.21-7,6.21-5.47,0-7.69-3.89-7.69-8.89s2.5-9.18,8-9.18a6.12,6.12,0,0,1,6.48,6Z"/><path d="M61.16,17.88c-.28,3,1,6.12,4.26,6.12,2.5,0,3.8-1,4.17-3.52H73c-.56,3.89-3.53,5.84-7.6,5.84-5.47,0-7.69-3.9-7.69-8.9s2.5-9.17,8-9.17c5.09.09,7.5,3.33,7.5,8.06v1.57Zm8.7-2.22c.1-2.87-1.2-5.1-4.35-5.1-2.69,0-4.26,2.32-4.26,5.1Z"/><path d="M76.91,25.76V10.93h-3V8.71h3V5C77,1.3,79.87.28,82.28.28A9.84,9.84,0,0,1,84.6.65V3.34c-.56,0-1.11-.1-1.67-.1-1.85,0-2.87.47-2.78,2.32V8.71h4v2.22h-4V25.76Z"/></g></g></svg>